<?xml version="1.0" encoding="utf-8"?>
<!-- Generator: Adobe Illustrator 25.2.3, SVG Export Plug-In . SVG Version: 6.00 Build 0)  -->
<svg version="1.1" id="Слой_1" xmlns="http://www.w3.org/2000/svg" xmlns:xlink="http://www.w3.org/1999/xlink" x="0px" y="0px"
	 viewBox="0 0 538.7 538.7" style="enable-background:new 0 0 538.7 538.7;" xml:space="preserve">
<linearGradient id="SVGID_1_" gradientUnits="userSpaceOnUse" x1="-59.2298" y1="193.0614" x2="434.5858" y2="389.1962">
	<stop  offset="0" style="stop-color:#E87722"/>
	<stop  offset="1" style="stop-color:#C1621A"/>
</linearGradient>
<path style="fill:url(#SVGID_1_);" d="M324.8,128.7c-4.6-8.5-15.8-10.2-25.3-11.6c-53.4-7.8-104.2-36.2-157.9-31.2
	c-52.8,5-98.9,43.6-120.6,92c-21.6,48.4-20.8,104.7-5.7,155.5c4.8,16.2,11,32.1,14,48.8c3,16.7,2.4,34.7-5.7,49.5l-3.3,13.6
	c20.9,11,47.1,5.2,67.8-6.1c20.8-11.4,38.4-27.7,59-39.3c24.8-13.9,52.9-20.5,79.3-31.1c26.4-10.6,52.5-26.8,64.5-52.5
	c10.9-23.3,8.6-50.3,7.1-76c-1.5-25.7-1.4-53.4,13.1-74.6c4-5.8,8.9-10.9,12.2-17C326.7,142.5,328.1,134.8,324.8,128.7z M69.6,202.6
	l1.4,1l2.3,0.1c0-1.3,0.2-2.6,0.6-3.9l-0.7-0.2l-1.1,0.4l0.5-1.9l0.7,0.9l0.7,0.2c0.5-1.4,1.2-2.8,2-4l-2.7-1.8l-1.6-0.1l1.4-2.1
	l0.7,1.5l2.7,1.9c0.9-1.1,1.9-2,3.1-2.8l-1.7-2.5l-1.7-0.7l2.6-1.8l0,1.9l1.8,2.5c2-1.1,4.3-1.8,6.7-1.9v-2l-1-1h3l-1,1v2
	c1.6,0.1,3,0.3,4.4,0.9l1.8-3.2l-0.1-1.8l2.6,1.5l-1.6,0.8l-1.7,3.1c1.1,0.5,2.2,1.1,3.1,1.9l1.1-1.2l0.2-1.1l1.4,1.3l-1.1,0.2
	l-1.1,1.1c1.1,0.9,2,2,2.8,3.2l3.2-1.6l0.9-1.4l1.2,2.3l-1.7-0.1l-3.1,1.6c0.7,1.2,1.2,2.5,1.5,3.9l2.8-0.3l1.4-1.2l0.4,3.1
	l-1.7-0.8l-2.7,0.3c0.1,0.7,0.2,1.3,0.2,2c0,2.6-0.7,4.9-1.8,7l2,1.1l1.4-0.4l-1.5,2.6l-0.4-1.4l-2.1-1.2c-0.8,1.2-1.7,2.3-2.9,3.2
	l2.1,3.5l1.6,0.7l-2.6,1.6l0.1-1.8l-2.1-3.4c-1,0.7-2,1.3-3.1,1.7l0.6,2l0.9,0.7l-1.8,0.6l0.3-1.1l-0.6-2c-1.3,0.4-2.6,0.7-4,0.8
	l-0.1,4.1l0.8,1.5l-2.5-0.1l0.9-1.4l0.1-4c-1.4,0-2.7-0.2-4-0.6l-1.2,3l0.4,1.8l-2.9-1.2l1.6-1l1.2-3c-1.6-0.6-3-1.4-4.3-2.5
	l-1.5,1.7l-0.3,1.8l-2.3-2.1l1.8-0.4l1.5-1.7c-1.1-1-2-2.2-2.7-3.6l-0.4,0.2l-0.4,1.4l-1.4-2.6l1.4,0.4l0.4-0.2
	c-0.7-1.6-1.1-3.3-1.2-5.1l-2.4-0.1l-1.5,1L69.6,202.6z M150.2,321.3l-7.1,0.9c0.2,1.7,0.4,3.5,0.4,5.3c0,6.6-1.7,12.8-4.7,18.2
	l5.2,2.9l3.5-1l-3.8,6.8l-1-3.5l-5.3-3c-2,3.1-4.5,6-7.4,8.4l5.5,9.1l4.2,1.9l-6.7,4l0.3-4.6l-5.4-8.9c-2.5,1.8-5.2,3.3-8,4.5
	l1.6,5.1l2.3,1.8l-4.8,1.5l0.8-2.8l-1.6-5.1c-3.3,1.2-6.8,1.8-10.4,2l-0.4,10.7l2.1,3.8l-6.6-0.2l2.3-3.6l0.4-10.5
	c-3.6,0-7-0.5-10.3-1.5l-3.2,7.8l1,4.7l-7.5-3.1l4-2.7l3.2-7.7c-4.1-1.5-7.8-3.6-11.1-6.4l-3.9,4.4l-0.7,4.8l-6-5.4l4.7-1.2l3.9-4.4
	c-2.8-2.7-5.2-5.8-7-9.2l-0.9,0.5l-1.1,3.5l-3.7-6.8l3.5,1.1l1-0.6c-1.8-4.1-3-8.5-3.2-13.2l-6.2-0.1l-3.8,2.5l0.2-7.8l3.7,2.7
	l6,0.1c0-3.5,0.5-6.8,1.4-10l-1.8-0.5l-2.8,1l1.3-4.8l1.9,2.2l1.9,0.5c1.2-3.7,3-7.2,5.3-10.2l-7-4.8l-4.3-0.3l3.7-5.4l1.8,3.9
	l7,4.8c2.3-2.8,5-5.2,8-7.3l-4.5-6.4l-4.5-1.7l6.6-4.7l0.1,4.8l4.6,6.6c5.2-3,11.1-4.7,17.4-4.9v-5.2l-2.6-2.6h7.8l-2.6,2.6v5.2
	c4,0.1,7.9,0.9,11.5,2.2l4.7-8.3l-0.4-4.6l6.8,3.8l-4.1,2l-4.5,8c2.9,1.3,5.7,3,8.1,4.9l2.8-3l0.4-2.9l3.7,3.4l-2.9,0.6l-2.7,2.9
	c2.8,2.4,5.2,5.2,7.2,8.4l8.3-4.3l2.3-3.6l3,5.8l-4.3-0.3l-8.1,4.2c1.7,3.1,3,6.5,3.8,10.1l7.2-0.9l3.6-3.2l1,8L150.2,321.3z
	 M182.2,196.1l1.9-2.9l0.3-8.4c-2.9,0-5.6-0.4-8.2-1.2l-2.6,6.3l0.8,3.8l-6-2.5l3.2-2.1l2.5-6.1c-3.3-1.2-6.3-2.9-8.9-5.1l-3.2,3.5
	l-0.5,3.8l-4.8-4.3l3.7-0.9l3.2-3.5c-2.2-2.2-4.1-4.6-5.6-7.4l-0.7,0.4l-0.8,2.8l-2.9-5.5l2.8,0.8l0.8-0.4
	c-1.5-3.2-2.4-6.8-2.6-10.5l-4.9-0.1l-3.1,2l0.1-6.2l3,2.1l4.8,0.1c0-2.8,0.4-5.5,1.2-8l-1.4-0.4L152,147l1-3.9l1.5,1.8l1.5,0.4
	c1-3,2.4-5.7,4.2-8.2l-5.6-3.8l-3.4-0.2l3-4.3l1.4,3.1l5.6,3.9c1.8-2.2,4-4.2,6.4-5.8l-3.6-5.1l-3.6-1.4l5.3-3.7l0.1,3.9l3.7,5.3
	c4.1-2.4,8.9-3.8,13.9-4v-4.2l-2.1-2.1h6.2l-2.1,2.1v4.2c3.2,0.1,6.3,0.7,9.2,1.8l3.8-6.6l-0.3-3.7l5.4,3.1l-3.3,1.6l-3.6,6.4
	c2.3,1,4.5,2.4,6.5,3.9l2.2-2.4l0.4-2.3l2.9,2.7l-2.3,0.5l-2.2,2.4c2.2,1.9,4.2,4.2,5.7,6.7l6.6-3.4l1.8-2.9l2.4,4.7l-3.4-0.2
	l-6.5,3.4c1.4,2.5,2.4,5.2,3,8.1l5.8-0.7l2.9-2.5l0.8,6.4l-3.4-1.8l-5.7,0.7c0.2,1.4,0.3,2.8,0.3,4.2c0,5.3-1.4,10.3-3.8,14.6
	l4.2,2.4l2.8-0.8l-3,5.4l-0.8-2.8l-4.3-2.4c-1.6,2.5-3.6,4.8-5.9,6.7l4.4,7.3l3.3,1.5l-5.3,3.2l0.2-3.7l-4.3-7.1
	c-2,1.4-4.1,2.7-6.4,3.6l1.3,4.1l1.9,1.5l-3.8,1.2l0.7-2.3l-1.3-4.1c-2.6,0.9-5.4,1.5-8.3,1.6l-0.3,8.5l1.6,3L182.2,196.1z
	 M244,263.3l-4,0.5c0.1,1,0.2,2,0.2,3c0,3.8-1,7.3-2.7,10.4l3,1.7l2-0.6l-2.2,3.9l-0.6-2l-3-1.7c-1.2,1.8-2.6,3.4-4.2,4.8l3.1,5.2
	l2.4,1.1l-3.8,2.3l0.1-2.6l-3.1-5.1c-1.4,1-2.9,1.9-4.6,2.5l0.9,2.9l1.3,1l-2.7,0.9l0.5-1.6l-0.9-2.9c-1.9,0.7-3.9,1.1-5.9,1.2
	l-0.2,6.1l1.2,2.1l-3.7-0.1l1.3-2.1l0.2-6c-2,0-4-0.3-5.9-0.8l-1.8,4.5l0.6,2.7l-4.3-1.8l2.3-1.5l1.8-4.4c-2.3-0.9-4.5-2.1-6.3-3.6
	l-2.2,2.5l-0.4,2.7l-3.4-3.1l2.7-0.7l2.3-2.5c-1.6-1.5-3-3.3-4-5.3l-0.5,0.3l-0.6,2l-2.1-3.9l2,0.6l0.6-0.3c-1-2.3-1.7-4.8-1.8-7.5
	L194,268l-2.2,1.4l0.1-4.4l2.1,1.5l3.4,0.1c0-2,0.3-3.9,0.8-5.7l-1-0.3l-1.6,0.6l0.7-2.8l1.1,1.3l1.1,0.3c0.7-2.1,1.7-4.1,3-5.8
	l-4-2.7l-2.4-0.2l2.1-3.1l1,2.2l4,2.8c1.3-1.6,2.9-3,4.6-4.1l-2.6-3.7l-2.6-1l3.8-2.7l0.1,2.7l2.6,3.7c2.9-1.7,6.3-2.7,9.9-2.8v-3
	l-1.5-1.5h4.4l-1.5,1.5v3c2.3,0.1,4.5,0.5,6.5,1.3l2.7-4.7l-0.2-2.6l3.9,2.2l-2.3,1.1l-2.6,4.5c1.7,0.7,3.2,1.7,4.6,2.8l1.6-1.7
	l0.3-1.7l2.1,1.9l-1.6,0.4l-1.6,1.7c1.6,1.4,3,3,4.1,4.8l4.7-2.4l1.3-2.1l1.7,3.3l-2.4-0.1l-4.6,2.4c1,1.8,1.7,3.7,2.2,5.8l4.1-0.5
	l2.1-1.8l0.6,4.6L244,263.3z"/>
<linearGradient id="SVGID_2_" gradientUnits="userSpaceOnUse" x1="-5.1396" y1="50.6544" x2="486.6584" y2="245.9879">
	<stop  offset="0" style="stop-color:#E87722"/>
	<stop  offset="1" style="stop-color:#C1621A"/>
</linearGradient>
<path style="fill:url(#SVGID_2_);" d="M527.7,144.4c-4.1-5.4-9.6-9.5-15.3-13.1c-13.6-8.6-28.5-14.6-44.8-14.8
	c-33.2-0.5-64.4,15.6-97.8,11.6c-3.8-0.4-8-1.7-11.8-0.6c-7.4,2.2-12.4,13.8-15.6,20c-11,20.9-16,43.7-18.1,67
	c-2.3,25.5-4.1,51-5.4,76.6c-0.2,4.4,1.4,9.4,4,13c6.1,8.9,18.4,10.9,29.1,10.5c25.8-1,50.8-11.2,71.9-26.1
	c21.1-14.9,38.7-34.3,54.2-55c10.9-14.5,20.9-29.8,34.2-42c8.9-8.2,19.9-16.2,21.3-28.1C534.3,156.6,531.8,149.8,527.7,144.4z
	 M399,252.3l-4,0.5c0.1,1,0.2,2,0.2,3c0,3.8-1,7.3-2.7,10.4l3,1.7l2-0.6l-2.2,3.9l-0.6-2l-3-1.7c-1.2,1.8-2.6,3.4-4.2,4.8l3.1,5.2
	l2.4,1.1l-3.8,2.3l0.1-2.6l-3.1-5.1c-1.4,1-2.9,1.9-4.6,2.5l0.9,2.9l1.3,1l-2.7,0.9l0.5-1.6l-0.9-2.9c-1.9,0.7-3.9,1.1-5.9,1.2
	l-0.2,6.1l1.2,2.1l-3.7-0.1l1.3-2.1l0.2-6c-2,0-4-0.3-5.9-0.8l-1.8,4.5l0.6,2.7l-4.3-1.8l2.3-1.5l1.8-4.4c-2.3-0.9-4.5-2.1-6.3-3.6
	l-2.2,2.5l-0.4,2.7l-3.4-3.1l2.7-0.7l2.3-2.5c-1.6-1.5-3-3.3-4-5.3l-0.5,0.3l-0.6,2l-2.1-3.9l2,0.6l0.6-0.3c-1-2.3-1.7-4.8-1.8-7.5
	L349,257l-2.2,1.4l0.1-4.4l2.1,1.5l3.4,0.1c0-2,0.3-3.9,0.8-5.7l-1-0.3l-1.6,0.6l0.7-2.8l1.1,1.3l1.1,0.3c0.7-2.1,1.7-4.1,3-5.8
	l-4-2.7l-2.4-0.2l2.1-3.1l1,2.2l4,2.8c1.3-1.6,2.9-3,4.6-4.1l-2.6-3.7l-2.6-1l3.8-2.7l0.1,2.7l2.6,3.7c2.9-1.7,6.3-2.7,9.9-2.8v-3
	l-1.5-1.5h4.4l-1.5,1.5v3c2.3,0.1,4.5,0.5,6.5,1.3l2.7-4.7l-0.2-2.6l3.9,2.2l-2.3,1.1l-2.6,4.5c1.7,0.7,3.2,1.7,4.6,2.8l1.6-1.7
	l0.3-1.7l2.1,1.9l-1.6,0.4l-1.6,1.7c1.6,1.4,3,3,4.1,4.8l4.7-2.4l1.3-2.1l1.7,3.3l-2.4-0.1l-4.6,2.4c1,1.8,1.7,3.7,2.2,5.8l4.1-0.5
	l2.1-1.8l0.6,4.6L399,252.3z M414.9,166.7l-2.6,0.3c0.1,0.6,0.2,1.3,0.2,1.9c0,2.4-0.6,4.7-1.7,6.7l1.9,1.1l1.3-0.4l-1.4,2.5
	l-0.4-1.3l-1.9-1.1c-0.7,1.2-1.7,2.2-2.7,3.1l2,3.3l1.5,0.7l-2.4,1.5l0.1-1.7l-2-3.2c-0.9,0.7-1.9,1.2-2.9,1.6l0.6,1.9l0.9,0.7
	l-1.7,0.6l0.3-1l-0.6-1.9c-1.2,0.4-2.5,0.7-3.8,0.7l-0.1,3.9l0.8,1.4l-2.4-0.1l0.8-1.3l0.1-3.8c-1.3,0-2.6-0.2-3.8-0.5l-1.2,2.9
	l0.4,1.7l-2.7-1.1l1.5-1l1.2-2.8c-1.5-0.5-2.9-1.3-4.1-2.3l-1.4,1.6l-0.2,1.7l-2.2-2l1.7-0.4l1.4-1.6c-1-1-1.9-2.1-2.6-3.4l-0.3,0.2
	l-0.4,1.3l-1.3-2.5l1.3,0.4l0.4-0.2c-0.7-1.5-1.1-3.1-1.2-4.8l-2.3-0.1l-1.4,0.9l0.1-2.8l1.4,1l2.2,0c0-1.3,0.2-2.5,0.5-3.7
	l-0.7-0.2l-1,0.4l0.5-1.8l0.7,0.8l0.7,0.2c0.5-1.4,1.1-2.6,1.9-3.8l-2.6-1.7l-1.6-0.1l1.4-2l0.7,1.4l2.6,1.8c0.8-1,1.8-1.9,2.9-2.7
	l-1.7-2.3l-1.7-0.6l2.4-1.7l0,1.8l1.7,2.4c1.9-1.1,4.1-1.7,6.4-1.8v-1.9l-0.9-0.9h2.8l-0.9,0.9v1.9c1.5,0.1,2.9,0.3,4.2,0.8l1.7-3
	l-0.1-1.7l2.5,1.4l-1.5,0.7l-1.7,2.9c1.1,0.5,2.1,1.1,3,1.8l1-1.1l0.2-1.1l1.3,1.2l-1.1,0.2l-1,1.1c1,0.9,1.9,1.9,2.6,3.1l3-1.6
	l0.8-1.3l1.1,2.1l-1.6-0.1l-3,1.5c0.6,1.1,1.1,2.4,1.4,3.7l2.6-0.3l1.3-1.2l0.4,2.9L414.9,166.7z M496.9,148.7l-2.6,0.3
	c0.1,0.6,0.2,1.3,0.2,1.9c0,2.4-0.6,4.7-1.7,6.7l1.9,1.1l1.3-0.4l-1.4,2.5l-0.4-1.3l-1.9-1.1c-0.7,1.2-1.7,2.2-2.7,3.1l2,3.3
	l1.5,0.7l-2.4,1.5l0.1-1.7l-2-3.2c-0.9,0.7-1.9,1.2-2.9,1.6l0.6,1.9l0.9,0.7l-1.7,0.6l0.3-1l-0.6-1.9c-1.2,0.4-2.5,0.7-3.8,0.7
	l-0.1,3.9l0.8,1.4l-2.4-0.1l0.8-1.3l0.1-3.8c-1.3,0-2.6-0.2-3.8-0.5l-1.2,2.9l0.4,1.7l-2.7-1.1l1.5-1l1.2-2.8
	c-1.5-0.5-2.9-1.3-4.1-2.3l-1.4,1.6l-0.2,1.7l-2.2-2l1.7-0.4l1.4-1.6c-1-1-1.9-2.1-2.6-3.4l-0.3,0.2l-0.4,1.3l-1.3-2.5l1.3,0.4
	l0.4-0.2c-0.7-1.5-1.1-3.1-1.2-4.8l-2.3-0.1l-1.4,0.9l0.1-2.8l1.4,1l2.2,0c0-1.3,0.2-2.5,0.5-3.7l-0.7-0.2l-1,0.4l0.5-1.8l0.7,0.8
	l0.7,0.2c0.5-1.4,1.1-2.6,1.9-3.8l-2.6-1.7l-1.6-0.1l1.4-2l0.7,1.4l2.6,1.8c0.8-1,1.8-1.9,2.9-2.7l-1.7-2.3l-1.7-0.6l2.4-1.7l0,1.8
	l1.7,2.4c1.9-1.1,4.1-1.7,6.4-1.8v-1.9l-0.9-0.9h2.8l-0.9,0.9v1.9c1.5,0.1,2.9,0.3,4.2,0.8l1.7-3l-0.1-1.7l2.5,1.4l-1.5,0.7
	l-1.7,2.9c1.1,0.5,2.1,1.1,3,1.8l1-1.1l0.2-1.1l1.3,1.2l-1.1,0.2l-1,1.1c1,0.9,1.9,1.9,2.6,3.1l3-1.6l0.8-1.3l1.1,2.1l-1.6-0.1
	l-3,1.5c0.6,1.1,1.1,2.4,1.4,3.7l2.6-0.3l1.3-1.2l0.4,2.9L496.9,148.7z"/>
</svg>
