<?xml version="1.0" encoding="utf-8"?>
<!-- Generator: Adobe Illustrator 25.2.3, SVG Export Plug-In . SVG Version: 6.00 Build 0)  -->
<svg version="1.1" id="Слой_1" xmlns="http://www.w3.org/2000/svg" xmlns:xlink="http://www.w3.org/1999/xlink" x="0px" y="0px"
	 viewBox="0 0 540.7 540.7" style="enable-background:new 0 0 540.7 540.7;" xml:space="preserve">
<linearGradient id="SVGID_1_" gradientUnits="userSpaceOnUse" x1="-58.2298" y1="194.0614" x2="435.5858" y2="390.1962">
	<stop  offset="0" style="stop-color:#E87722"/>
	<stop  offset="1" style="stop-color:#C1621A"/>
</linearGradient>
<path style="fill:url(#SVGID_1_);" d="M325.8,129.7c-4.6-8.5-15.8-10.2-25.3-11.6c-53.4-7.8-104.2-36.2-157.9-31.2
	c-20.4,1.9-39.8,8.9-57.2,19.5L97,128.8l42.5,27.4l40.3-11l2.6,9.7l-38.7,10.5l1.3,37.1l-10,0.4l-1.4-38.5l-44.4-28.6L76.9,112
	c-23.7,16.7-43.1,40.4-54.9,67C0.4,227.3,1.2,283.7,16.3,334.5c4.8,16.2,11,32.1,14,48.8c3,16.7,2.4,34.7-5.7,49.5l-3.3,13.6
	c20.9,11,47.1,5.2,67.8-6.1c20.8-11.4,38.4-27.7,59-39.3c5-2.8,10.2-5.3,15.5-7.7l-27.2-47.9v-42.2L111,285.6l4.6-6.6l24.4,17
	l23.8-21.4l5.4,5.9l-24.8,22.4v40.4l26.7,46.9c18.5-7.4,37.9-12.9,56.4-20.3c26.4-10.6,52.5-26.8,64.5-52.5
	c10.9-23.3,8.6-50.3,7.1-76c-1.5-25.7-1.4-53.4,13.1-74.6c4-5.8,8.9-10.9,12.2-17C327.7,143.5,329.1,135.8,325.8,129.7z"/>
<linearGradient id="SVGID_2_" gradientUnits="userSpaceOnUse" x1="-4.1396" y1="51.6544" x2="487.6584" y2="246.9879">
	<stop  offset="0" style="stop-color:#E87722"/>
	<stop  offset="1" style="stop-color:#C1621A"/>
</linearGradient>
<path style="fill:url(#SVGID_2_);" d="M528.7,145.4c-4.1-5.4-9.6-9.5-15.3-13.1c-13.6-8.6-28.5-14.6-44.8-14.8
	c-33.2-0.5-64.4,15.6-97.8,11.6c-3.8-0.4-8-1.7-11.8-0.6c-7.4,2.2-12.4,13.8-15.6,20c-11,20.9-16,43.7-18.1,67
	c-2.3,25.5-4.1,51-5.4,76.6c-0.2,4.4,1.4,9.4,4,13c6.1,8.9,18.4,10.9,29.1,10.5c25.8-1,50.8-11.2,71.9-26.1
	c19.1-13.5,35.3-30.7,49.7-49.1l-21.9-20.5l-37.4-9l-26.3,18l-4.3-6.3l25.2-17.3l-10.3-26.4l7.1-2.8l10.6,27.4l39.1,9.4l22.8,21.4
	c10.8-14.4,20.8-29.6,34.1-41.8c8.9-8.2,19.9-16.2,21.3-28.1C535.3,157.6,532.8,150.8,528.7,145.4z"/>
</svg>
