<?xml version="1.0" encoding="utf-8"?>
<!-- Generator: Adobe Illustrator 25.2.3, SVG Export Plug-In . SVG Version: 6.00 Build 0)  -->
<svg version="1.1" id="Слой_1" xmlns="http://www.w3.org/2000/svg" xmlns:xlink="http://www.w3.org/1999/xlink" x="0px" y="0px"
	 viewBox="0 0 541.3 541.3" style="enable-background:new 0 0 541.3 541.3;" xml:space="preserve">
<linearGradient id="SVGID_1_" gradientUnits="userSpaceOnUse" x1="218.0524" y1="228.4564" x2="356.7407" y2="283.5409">
	<stop  offset="0" style="stop-color:#E87722"/>
	<stop  offset="1" style="stop-color:#C1621A"/>
</linearGradient>
<path style="fill:url(#SVGID_1_);" d="M325.9,230.5c-1.8,21.5-3.3,43.1-4.4,64.7c-0.2,4.4,1.4,9.4,4,13c4.7,6.8,13.1,9.6,21.6,10.3
	c3.8-9.1,6-19.1,6-29.6C353,265.5,342.4,244.5,325.9,230.5z"/>
<linearGradient id="SVGID_2_" gradientUnits="userSpaceOnUse" x1="324.2099" y1="78.1119" x2="531.1971" y2="160.3236">
	<stop  offset="0" style="stop-color:#E87722"/>
	<stop  offset="1" style="stop-color:#C1621A"/>
</linearGradient>
<path style="fill:url(#SVGID_2_);" d="M512.5,170.3c8.8,0,16.9-2.6,23.8-7.1c-0.4-5.3-2.6-10.5-5.9-14.8c-4.1-5.4-9.6-9.5-15.3-13.1
	c-13.6-8.6-28.5-14.6-44.8-14.8c-0.3,0-0.5,0-0.8,0c-0.3,2.1-0.5,4.2-0.5,6.3C469,150.8,488.5,170.3,512.5,170.3z"/>
<linearGradient id="SVGID_3_" gradientUnits="userSpaceOnUse" x1="301.4315" y1="135.7865" x2="418.406" y2="182.2467">
	<stop  offset="0" style="stop-color:#E87722"/>
	<stop  offset="1" style="stop-color:#C1621A"/>
</linearGradient>
<circle style="fill:url(#SVGID_3_);" cx="401" cy="175.3" r="22"/>
<linearGradient id="SVGID_4_" gradientUnits="userSpaceOnUse" x1="-2.5896" y1="56.3768" x2="488.4837" y2="251.4225">
	<stop  offset="0" style="stop-color:#E87722"/>
	<stop  offset="1" style="stop-color:#C1621A"/>
</linearGradient>
<path style="fill:url(#SVGID_4_);" d="M512.5,180.3c-29.5,0-53.5-24-53.5-53.5c0-2,0.1-4,0.3-5.9c-29.1,2.4-57.1,14.8-86.9,11.2
	c-3.8-0.4-8-1.7-11.8-0.6c-7.4,2.2-12.4,13.8-15.6,20c-11,20.9-16,43.7-18.1,67c0,0,0,0,0,0c21.9,15.7,36.1,41.4,36.1,70.3
	c0,10.4-1.8,20.4-5.2,29.6c24.7-1.7,48.4-11.6,68.6-25.9c21.1-14.9,38.7-34.3,54.2-55c10.9-14.5,20.9-29.8,34.2-42
	c6.5-6,14.1-11.9,18.3-19.3C526.8,178.9,519.8,180.3,512.5,180.3z M401,207.3c-17.6,0-32-14.4-32-32s14.4-32,32-32s32,14.4,32,32
	S418.6,207.3,401,207.3z"/>
<linearGradient id="SVGID_5_" gradientUnits="userSpaceOnUse" x1="183.34" y1="251.9076" x2="353.4808" y2="319.4846">
	<stop  offset="0" style="stop-color:#E87722"/>
	<stop  offset="1" style="stop-color:#C1621A"/>
</linearGradient>
<path style="fill:url(#SVGID_5_);" d="M276.5,212.3c-42.2,0-76.5,34.3-76.5,76.5c0,33.8,22.1,62.6,52.6,72.7
	c17.4-10,32.6-23.3,41-41.2c10.9-23.3,8.6-50.3,7.1-76c-0.5-9.2-0.9-18.8-0.4-28.1C292.8,213.7,284.8,212.3,276.5,212.3z"/>
<linearGradient id="SVGID_6_" gradientUnits="userSpaceOnUse" x1="211.6128" y1="103.6798" x2="282.996" y2="132.032">
	<stop  offset="0" style="stop-color:#E87722"/>
	<stop  offset="1" style="stop-color:#C1621A"/>
</linearGradient>
<path style="fill:url(#SVGID_6_);" d="M245,127.3c9.4,0,17.5-5.9,20.6-14.3c-14.1-3.9-28.1-8.3-42.1-12.3c-0.3,1.5-0.5,3-0.5,4.6
	C223,117.5,232.9,127.3,245,127.3z"/>
<linearGradient id="SVGID_7_" gradientUnits="userSpaceOnUse" x1="-33.724" y1="159.3887" x2="408.231" y2="334.9254">
	<stop  offset="0" style="stop-color:#E87722"/>
	<stop  offset="1" style="stop-color:#C1621A"/>
</linearGradient>
<path style="fill:url(#SVGID_7_);" d="M190,288.8c0-47.7,38.8-86.5,86.5-86.5c8.6,0,16.8,1.3,24.7,3.6c1.6-13,5.3-25.5,12.7-36.3
	c4-5.8,8.9-10.9,12.2-17c3.3-6.1,4.8-13.9,1.5-20c-4.6-8.5-15.8-10.2-25.3-11.6c-9-1.3-18-3.2-26.8-5.5
	c-4.3,12.6-16.2,21.7-30.3,21.7c-17.6,0-32-14.4-32-32c0-2.5,0.3-4.9,0.8-7.3c-20.6-5.5-41.3-9.4-62.3-8.6c5.4,11.3,8.5,24,8.5,37.4
	c0,47.7-38.8,86.5-86.5,86.5c-20.7,0-39.7-7.3-54.6-19.5c-16.6,45.6-14.8,97-0.9,143.7c1.4,4.8,2.9,9.5,4.5,14.2
	c12.2-6.6,26.2-10.4,41.1-10.4c40,0,73.7,27.3,83.6,64.2c0.9-0.5,1.8-1.1,2.7-1.6c24.8-13.9,52.9-20.5,79.3-31.1
	c4-1.6,7.9-3.3,11.8-5.2C210.9,354,190,323.8,190,288.8z"/>
<linearGradient id="SVGID_8_" gradientUnits="userSpaceOnUse" x1="24.3156" y1="116.8546" x2="191.867" y2="183.4031">
	<stop  offset="0" style="stop-color:#E87722"/>
	<stop  offset="1" style="stop-color:#C1621A"/>
</linearGradient>
<path style="fill:url(#SVGID_8_);" d="M150,126.8c0-13.2-3.4-25.6-9.3-36.5C89.4,96.7,44.8,134.7,23.6,182c-0.3,0.7-0.6,1.4-0.9,2.1
	c13.5,12,31.3,19.3,50.7,19.3C115.7,203.3,150,169,150,126.8z"/>
<linearGradient id="SVGID_9_" gradientUnits="userSpaceOnUse" x1="-10.4947" y1="376.2896" x2="190.4844" y2="456.1149">
	<stop  offset="0" style="stop-color:#E87722"/>
	<stop  offset="1" style="stop-color:#C1621A"/>
</linearGradient>
<path style="fill:url(#SVGID_9_);" d="M63.5,351.3c-13.8,0-26.8,3.7-38,10.1c2.6,8.2,4.9,16.4,6.4,24.9c3,16.7,2.4,34.7-5.7,49.5
	l-3.3,13.6c20.9,11,47.1,5.2,67.8-6.1c16.8-9.2,31.5-21.6,47.4-32.2C130.5,377,100,351.3,63.5,351.3z"/>
</svg>
