<svg xmlns="http://www.w3.org/2000/svg" width="46px" height="66px" viewBox="0 0 46 66">
<path fill="#006eba" d="M45,23.296c0,16.958-21.998,41.269-21.998,41.269S1,39.69,1,23.296C1,11.221,10.85,1.435,23.002,1.435
C35.149,1.435,45,11.221,45,23.296"/>
<path fill="#00b1ff" d="M23.002,65.564c-0.002,0-0.004,0-0.006,0c-0.284-0.002-0.555-0.124-0.743-0.338
C21.344,64.2,0,39.879,0,23.296C0,10.69,10.319,0.435,23.002,0.435C35.684,0.435,46,10.69,46,23.296
c0,17.146-21.348,40.936-22.256,41.939C23.554,65.445,23.284,65.564,23.002,65.564z M23.002,2.435C11.421,2.435,2,11.793,2,23.296
c0,14.143,17.196,35.239,21.01,39.743C26.839,58.606,44,37.919,44,23.296C44,11.793,34.58,2.435,23.002,2.435z"/>
<circle style="fill:#FFFFFF;" cx="22.9" cy="23.3" r="8.7"/>
</svg>
