<?xml version="1.0" encoding="utf-8"?>
<!-- Generator: Adobe Illustrator 25.2.3, SVG Export Plug-In . SVG Version: 6.00 Build 0)  -->
<svg version="1.1" id="Слой_1" xmlns="http://www.w3.org/2000/svg" xmlns:xlink="http://www.w3.org/1999/xlink" x="0px" y="0px"
	 viewBox="0 0 231 63" style="enable-background:new 0 0 231 63;" xml:space="preserve">
<g>
	<g>
		<g>
			<path style="fill-rule:evenodd;clip-rule:evenodd;fill:#F26F21;" d="M27.7,55.7c-3.5,0-6.8-0.7-10-2.2c-0.5-0.2-1-0.6-1.6-0.8
				c-0.5-0.2-0.5-0.5-0.5-0.9c0.4-2.4,1.3-4.5,2.9-6.3c1.7-2,3.9-3.3,6.4-3.9c2.7-0.6,5.3-0.4,7.8,0.8c1.4,0.7,2.7,1.5,3.7,2.6
				c1.6,1.8,2.8,3.8,3.1,6.2c0.2,1.2,0.2,1.2-0.9,1.7c-2.3,1.2-4.8,2-7.4,2.4C30.1,55.6,28.9,55.6,27.7,55.7z"/>
			<path style="fill-rule:evenodd;clip-rule:evenodd;fill:#F26F21;" d="M34.2,31.5c0.1,3.6-2.9,6.8-6.9,6.7
				c-3.3-0.1-6.8-2.9-6.5-7.2c0.2-3.4,2.9-6.2,6.6-6.2C31.2,24.8,34.2,27.7,34.2,31.5z"/>
		</g>
		<path style="fill-rule:evenodd;clip-rule:evenodd;fill:#274085;" d="M42.2,50.8c-1-4.6-3.4-8-7.4-10.3c0.8-0.7,1.7-1.1,2.6-1.4
			c2.8-0.9,5.4-0.5,7.8,1.2c1.4,1,2.3,2.4,2.9,4c0,0.1,0,0.3-0.1,0.5c-1.1,1.8-2.5,3.3-4,4.8C43.4,49.9,42.8,50.4,42.2,50.8z"/>
		<path style="fill-rule:evenodd;clip-rule:evenodd;fill:#274085;" d="M40.4,27c2.5-0.1,4.5,2.1,4.5,4.5c0,2.8-2.1,4.6-4.5,4.5
			c-2.5,0-4.6-1.9-4.5-4.7C35.8,29.1,37.7,26.9,40.4,27z"/>
		<path style="fill-rule:evenodd;clip-rule:evenodd;fill:#274085;" d="M52.7,31.6c0.2,1.5-1.4,3.2-3.2,3.2c-1.8-0.1-3.1-1.4-3.1-3.1
			c0-1.8,1.2-3.2,3.1-3.2C51.3,28.3,52.8,29.8,52.7,31.6z"/>
		<path style="fill-rule:evenodd;clip-rule:evenodd;fill:#274085;" d="M49.8,41.5c-1-1.5-2.2-2.8-3.7-3.7c0-0.1,0-0.1,0-0.2
			c0.7-0.3,1.5-0.6,2.2-0.7c0.8-0.1,1.6,0,2.4,0c0.3,0,0.5,0.1,0.4,0.5C50.7,38.7,50.3,40.1,49.8,41.5z"/>
		<path style="fill-rule:evenodd;clip-rule:evenodd;fill:#274085;" d="M27.5,0.4C16.8,0.4,7.3,5.8,1.8,14.1C2.9,15,4,15.9,5.1,16.7
			C9.9,9.4,18.2,4.6,27.5,4.6c14.8,0,26.8,12,26.8,26.9c0,14.8-12,26.9-26.8,26.9c-10.6,0-19.8-6.2-24.2-15.1C2.3,44.1,1.2,45,0,46
			c5.2,9.9,15.6,16.6,27.5,16.6c17.2,0,31.1-13.9,31.1-31.1C58.6,14.3,44.7,0.4,27.5,0.4z"/>
	</g>
	<g>
		<path style="fill:#274085;" d="M86.2,13.2c0.3,0.6,0.4,1.2,0.4,1.9c0,0.7-0.1,1.4-0.4,2c-0.3,0.6-0.7,1.1-1.3,1.5
			c-0.7,0.5-1.6,0.8-2.6,0.9v1.4h-1.8v-1.4c-1-0.1-1.8-0.4-2.6-0.9c-0.6-0.4-1-0.9-1.3-1.5c-0.3-0.6-0.4-1.2-0.4-1.9
			c0-0.7,0.1-1.3,0.4-1.9c0.3-0.6,0.7-1.1,1.3-1.5c0.7-0.5,1.6-0.8,2.6-0.9v-0.7h1.8v0.7c1,0.1,1.8,0.4,2.6,0.9
			C85.5,12.2,85.9,12.7,86.2,13.2z M80.5,17.7v-4.9c-0.6,0.1-1.1,0.3-1.5,0.6c-0.6,0.4-0.9,1-0.9,1.8c0,0.8,0.3,1.5,0.8,1.9
			C79.4,17.4,79.9,17.6,80.5,17.7z M84.7,15.2c0-0.8-0.3-1.4-0.9-1.8c-0.4-0.3-0.9-0.5-1.5-0.6v4.9c0.6-0.1,1.1-0.3,1.5-0.6
			C84.4,16.7,84.7,16,84.7,15.2z"/>
		<path style="fill:#274085;" d="M96.5,16.3c0.1,0.4,0.2,0.7,0.2,1.1c0,0.4-0.1,0.8-0.2,1.1c-0.1,0.4-0.3,0.7-0.6,1
			c-0.2,0.3-0.4,0.5-0.7,0.7c-0.3,0.2-0.6,0.4-0.9,0.5c-0.3,0.1-0.7,0.2-1.1,0.2h-4.8V10.1h7.3v1.7h-5.5v2.1h3
			c0.6,0,1.1,0.1,1.6,0.4c0.5,0.2,0.9,0.6,1.2,1C96.2,15.6,96.4,15.9,96.5,16.3z M94.5,16.3c-0.2-0.2-0.4-0.4-0.6-0.5
			c-0.2-0.1-0.5-0.2-0.7-0.2h-3v3.6h3c0.2,0,0.4-0.1,0.7-0.2c0.2-0.1,0.4-0.3,0.6-0.4c0.3-0.3,0.4-0.8,0.4-1.3
			C94.9,17,94.8,16.6,94.5,16.3z"/>
		<path style="fill:#274085;" d="M106.6,10.1l-4.2,8.8c-0.2,0.5-0.5,0.9-0.7,1.1c-0.2,0.3-0.5,0.5-0.8,0.7c-0.2,0.1-0.4,0.2-0.6,0.2
			c-0.3,0.1-0.5,0.1-0.6,0.1c-0.4,0-0.8-0.1-1.2-0.2l0.6-1.6c0.1,0,0.2,0.1,0.3,0.1c0.1,0,0.2,0,0.3,0c0.2,0,0.4,0,0.6-0.1
			c0.2-0.1,0.3-0.3,0.5-0.5c0.1-0.2,0.3-0.4,0.4-0.6l-3.8-8h1.8l2.8,6.2l2.8-6.2H106.6z"/>
		<path style="fill:#274085;" d="M116.5,10.1v10.7h-1.8v-3.7h-5.1v3.7h-1.8V10.1h1.8v5.3h5.1v-5.3H116.5z"/>
		<path style="fill:#274085;" d="M132.2,19.2v3h-1.8v-1.3h-8.8V10.1h1.8v9h5.8v-9h1.8v9H132.2z"/>
		<path style="fill:#274085;" d="M135.7,18.8c0.2,0.2,0.4,0.4,0.7,0.6c0.3,0.1,0.6,0.2,1,0.2c0.5,0,0.9-0.1,1.3-0.3
			c0.4-0.2,0.7-0.5,1-0.9l1.3,0.9c-0.4,0.6-0.9,1-1.5,1.3c-0.6,0.3-1.3,0.5-2.1,0.5c-0.6,0-1.2-0.1-1.8-0.4c-0.6-0.2-1-0.6-1.4-1
			c-0.3-0.4-0.6-0.8-0.7-1.3c-0.2-0.5-0.2-1-0.2-1.5c0-0.6,0.1-1.1,0.2-1.7c0.2-0.5,0.4-1,0.7-1.4c0.4-0.4,0.8-0.8,1.3-1
			c0.5-0.2,1.1-0.3,1.7-0.3c0.6,0,1.2,0.1,1.7,0.3c0.5,0.2,1,0.6,1.3,1c0.6,0.8,1,1.8,1,2.9c0,0.1,0,0.4,0,0.7h-6.1
			C135.3,18,135.4,18.4,135.7,18.8z M136.4,14.4c-0.3,0.1-0.5,0.3-0.7,0.6c-0.2,0.3-0.3,0.6-0.4,1h4.2c-0.1-0.4-0.2-0.7-0.4-1
			c-0.2-0.2-0.4-0.4-0.7-0.6c-0.3-0.1-0.6-0.2-1-0.2C137,14.2,136.7,14.2,136.4,14.4z"/>
		<path style="fill:#274085;" d="M150.2,12.8v8h-1.8v-3.3h-3.6v3.3H143v-8h1.8v2.9h3.6v-2.9H150.2z"/>
		<path style="fill:#274085;" d="M158.8,14.4h-2.7v6.4h-1.8v-6.4h-2.7v-1.6h7.2V14.4z"/>
		<path style="fill:#274085;" d="M167.7,15.2c0.2,0.5,0.2,1,0.2,1.6c0,1.2-0.3,2.2-0.9,3c-0.3,0.4-0.7,0.7-1.2,0.9
			c-0.5,0.2-1,0.3-1.5,0.3c-0.9,0-1.6-0.2-2.2-0.7v4h-1.8V12.8h1.6v0.6c0.3-0.3,0.7-0.5,1.1-0.6c0.4-0.1,0.8-0.2,1.3-0.2
			c0.6,0,1.1,0.1,1.6,0.3c0.5,0.2,0.9,0.5,1.3,1C167.3,14.3,167.6,14.7,167.7,15.2z M166,16.8c0-0.8-0.2-1.4-0.5-1.9
			c-0.3-0.5-0.9-0.8-1.7-0.8c-0.3,0-0.6,0.1-0.9,0.2c-0.3,0.1-0.5,0.3-0.7,0.5c-0.2,0.2-0.3,0.5-0.4,0.9c-0.1,0.3-0.1,0.7-0.1,1.1
			c0,0.4,0,0.8,0.1,1.1c0.1,0.4,0.2,0.6,0.4,0.9c0.4,0.4,0.9,0.7,1.6,0.7c0.3,0,0.6-0.1,0.9-0.2c0.3-0.1,0.5-0.3,0.7-0.6
			C165.9,18.3,166,17.7,166,16.8z"/>
		<path style="fill:#274085;" d="M174.7,20.9v-1.1c-0.4,0.5-0.8,0.8-1.2,1c-0.4,0.2-1,0.3-1.6,0.3c-0.8,0-1.4-0.2-1.9-0.7
			c-0.5-0.4-0.7-1-0.7-1.8c0-0.5,0.1-1,0.3-1.4c0.2-0.4,0.6-0.7,1.1-0.9c0.4-0.2,0.8-0.3,1.3-0.4c0.5-0.1,1.2-0.2,1.9-0.3l0.6-0.1
			c0-0.4-0.2-0.7-0.5-0.9c-0.3-0.2-0.7-0.3-1.2-0.3c-0.8,0-1.5,0.3-2.1,0.8l-1.1-1.2c0.4-0.4,0.9-0.8,1.5-1c0.5-0.2,1.1-0.3,1.8-0.3
			c0.4,0,0.8,0.1,1.2,0.2c0.4,0.2,0.8,0.4,1,0.6c0.7,0.6,1,1.4,1,2.6v4.8H174.7z M174.4,17.9c0-0.2,0-0.6,0-0.9
			c-0.9,0.2-1.7,0.3-2.2,0.4c-0.4,0.1-0.7,0.2-1,0.4c-0.2,0.2-0.4,0.4-0.4,0.7c0,0.3,0.1,0.6,0.4,0.8c0.2,0.2,0.6,0.3,0.9,0.3
			c0.4,0,0.8-0.1,1.2-0.3c0.3-0.2,0.6-0.4,0.8-0.8C174.3,18.3,174.4,18.1,174.4,17.9z"/>
		<path style="fill:#274085;" d="M185.1,12.8v8h-1.7v-6.4h-2.6l-0.5,3.8c-0.1,0.9-0.4,1.6-0.7,2.1c-0.4,0.5-0.9,0.7-1.6,0.7
			c-0.2,0-0.4,0-0.6,0v-1.6c0.3,0,0.6-0.1,0.8-0.2c0.2-0.1,0.3-0.3,0.3-0.5c0.1-0.2,0.1-0.5,0.2-0.9l0.6-5H185.1z"/>
		<path style="fill:#274085;" d="M189,12.8v2.7h2c0.4,0,0.7,0.1,1.1,0.2c0.3,0.1,0.6,0.3,0.9,0.6c0.2,0.2,0.4,0.5,0.6,0.9
			c0.1,0.3,0.2,0.7,0.2,1.1c0,0.4-0.1,0.7-0.2,1.1c-0.1,0.3-0.3,0.6-0.6,0.9c-0.2,0.2-0.5,0.4-0.9,0.6c-0.3,0.1-0.7,0.2-1.1,0.2
			h-3.8v-8H189z M189,19.2h1.9c0.3,0,0.5-0.1,0.7-0.3c0.2-0.2,0.3-0.4,0.3-0.7c0-0.2-0.1-0.5-0.3-0.7c-0.2-0.2-0.4-0.3-0.7-0.3H189
			V19.2z"/>
		<path style="fill:#274085;" d="M202.3,12.8v8h-1.8v-3.3h-3.6v3.3h-1.8v-8h1.8v2.9h3.6v-2.9H202.3z"/>
		<path style="fill:#274085;" d="M206.2,12.8v2.7h1.8c0.4,0,0.7,0.1,1,0.2c0.3,0.1,0.6,0.3,0.9,0.5c0.3,0.2,0.5,0.5,0.6,0.9
			c0.1,0.3,0.2,0.7,0.2,1.1c0,0.4-0.1,0.7-0.2,1.1c-0.1,0.3-0.3,0.6-0.6,0.9c-0.2,0.2-0.5,0.4-0.9,0.5c-0.3,0.1-0.7,0.2-1,0.2h-3.6
			v-8H206.2z M206.2,19.2h1.7c0.3,0,0.5-0.1,0.7-0.3c0.2-0.2,0.3-0.4,0.3-0.7c0-0.3-0.1-0.5-0.3-0.7c-0.2-0.2-0.4-0.3-0.7-0.3h-1.7
			V19.2z M213.3,12.8v8h-1.8v-8H213.3z"/>
		<path style="fill:#274085;" d="M222.6,20.9h-1.8v-5.2l-3.8,5.2h-1.6v-8h1.8v5l3.8-5h1.6V20.9z M221.4,9.7c0,0.4-0.1,0.8-0.3,1.1
			c-0.2,0.3-0.5,0.6-0.8,0.8c-0.3,0.2-0.7,0.3-1.1,0.3c-0.4,0-0.8-0.1-1.1-0.3c-0.3-0.2-0.6-0.5-0.8-0.8c-0.2-0.3-0.3-0.7-0.3-1.1
			h1.4c0,0.2,0.1,0.4,0.2,0.6c0.2,0.2,0.4,0.3,0.6,0.3c0.2,0,0.4-0.1,0.6-0.3c0.2-0.2,0.3-0.4,0.3-0.6H221.4z"/>
		<path style="fill:#274085;" d="M85.3,27.3V38h-1.8v-3.7h-5.1V38h-1.8V27.3h1.8v5.3h5.1v-5.3H85.3z"/>
		<path style="fill:#274085;" d="M96,27.3V38h-1.8v-7.6l-5,7.6h-1.8V27.3h1.8v7.6l5-7.6H96z"/>
		<path style="fill:#274085;" d="M106.6,27.3V38h-1.8v-7.6l-5,7.6H98V27.3h1.8v7.6l5-7.6H106.6z"/>
		<path style="fill:#274085;" d="M121.3,32.7c0,1.5-0.4,2.8-1.3,3.8c-0.4,0.6-1,1-1.7,1.3c-0.7,0.3-1.4,0.5-2.2,0.5
			c-0.8,0-1.5-0.1-2.2-0.4c-0.7-0.3-1.3-0.7-1.7-1.3c-0.4-0.5-0.7-1-0.9-1.6l1.8-0.5c0.1,0.4,0.3,0.7,0.5,1.1c0.3,0.4,0.6,0.6,1,0.8
			c0.4,0.2,0.9,0.3,1.4,0.3c0.5,0,1-0.1,1.4-0.3c0.4-0.2,0.8-0.5,1.1-0.8c0.4-0.5,0.6-1.1,0.7-1.9h-3.7v-1.8h3.7
			c-0.1-0.8-0.4-1.4-0.7-1.9c-0.3-0.4-0.6-0.7-1.1-0.8c-0.4-0.2-0.9-0.3-1.4-0.3c-0.5,0-1,0.1-1.4,0.3c-0.4,0.2-0.8,0.5-1.1,0.8
			c-0.2,0.3-0.4,0.7-0.6,1.1l-1.8-0.3c0.2-0.7,0.5-1.4,1-1.9c0.5-0.6,1-1,1.7-1.3c0.7-0.3,1.4-0.4,2.2-0.4s1.5,0.1,2.2,0.4
			c0.7,0.3,1.3,0.7,1.7,1.3C120.8,29.8,121.3,31.1,121.3,32.7z"/>
		<path style="fill:#274085;" d="M130.2,38h-1.8v-6.3h-3.6V38H123v-8h7.2V38z"/>
		<path style="fill:#274085;" d="M139.5,38h-1.8v-5.2l-3.8,5.2h-1.6v-8h1.8v5l3.8-5h1.6V38z"/>
		<path style="fill:#274085;" d="M148.5,36.3h0.7V39h-1.7v-1h-5v1h-1.7v-2.7c0.4,0,0.7-0.2,1-0.7c0.3-0.4,0.5-1.1,0.6-2.1l0.4-3.6
			h5.7V36.3z M146.8,31.6h-2.5l-0.3,2.2c-0.1,1.2-0.4,2.1-0.8,2.5h3.5V31.6z"/>
		<path style="fill:#274085;" d="M152.9,35.9c0.2,0.2,0.4,0.4,0.7,0.6c0.3,0.1,0.6,0.2,1,0.2c0.5,0,0.9-0.1,1.3-0.3
			c0.4-0.2,0.7-0.5,1-0.9l1.3,0.9c-0.4,0.6-0.9,1-1.5,1.3c-0.6,0.3-1.3,0.5-2.1,0.5c-0.6,0-1.2-0.1-1.8-0.3c-0.6-0.2-1-0.6-1.4-1
			c-0.3-0.4-0.6-0.8-0.7-1.3c-0.2-0.5-0.2-1-0.2-1.5c0-0.6,0.1-1.1,0.2-1.7c0.2-0.5,0.4-1,0.7-1.4c0.4-0.4,0.8-0.8,1.3-1
			c0.5-0.2,1.1-0.3,1.7-0.3c0.6,0,1.2,0.1,1.7,0.3c0.5,0.2,1,0.6,1.3,1c0.6,0.8,1,1.8,1,2.9c0,0.1,0,0.4,0,0.7h-6.1
			C152.5,35.2,152.6,35.6,152.9,35.9z M153.6,31.5c-0.3,0.1-0.5,0.3-0.7,0.6c-0.2,0.3-0.3,0.6-0.4,1h4.2c-0.1-0.4-0.2-0.7-0.4-1
			c-0.2-0.2-0.4-0.4-0.7-0.6c-0.3-0.1-0.6-0.2-1-0.2C154.2,31.3,153.9,31.4,153.6,31.5z"/>
		<path style="fill:#274085;" d="M168.6,30l0,8h-1.8v-4.7l-2,3.2h-1l-2-3.2V38H160v-8h1.6l2.7,4.4l2.7-4.4H168.6z"/>
		<path style="fill:#274085;" d="M177.9,38h-1.8v-5.2l-3.8,5.2h-1.6v-8h1.8v5l3.8-5h1.6V38z"/>
		<path style="fill:#274085;" d="M181.9,37.9c-0.5-0.2-1-0.6-1.3-1c-0.6-0.8-1-1.8-1-2.9c0-1.2,0.3-2.1,1-2.9c0.3-0.4,0.8-0.8,1.3-1
			c0.5-0.2,1.1-0.3,1.7-0.3c0.6,0,1.2,0.1,1.7,0.3c0.5,0.2,1,0.6,1.3,1c0.6,0.8,1,1.8,1,2.9c0,0.6-0.1,1.1-0.2,1.6
			c-0.2,0.5-0.4,0.9-0.7,1.3c-0.4,0.4-0.8,0.8-1.3,1c-0.5,0.2-1.1,0.3-1.7,0.3C183,38.2,182.4,38.1,181.9,37.9z M185.7,34
			c0-0.8-0.2-1.4-0.5-1.8c-0.2-0.2-0.4-0.4-0.7-0.5c-0.3-0.1-0.6-0.2-0.9-0.2c-0.3,0-0.6,0.1-0.9,0.2c-0.3,0.1-0.5,0.3-0.7,0.5
			c-0.3,0.4-0.5,1-0.5,1.8c0,0.8,0.2,1.4,0.5,1.8c0.2,0.2,0.4,0.4,0.7,0.6c0.3,0.1,0.6,0.2,0.9,0.2c0.3,0,0.6-0.1,0.9-0.2
			c0.3-0.1,0.5-0.3,0.7-0.6C185.5,35.4,185.7,34.8,185.7,34z"/>
		<path style="fill:#274085;" d="M196.1,30v8h-1.7v-6.4h-2.6l-0.5,3.8c-0.1,0.9-0.4,1.6-0.7,2.1c-0.4,0.5-0.9,0.7-1.6,0.7
			c-0.2,0-0.4,0-0.6,0v-1.6c0.3,0,0.6-0.1,0.8-0.2c0.2-0.1,0.3-0.3,0.3-0.5c0.1-0.2,0.1-0.5,0.2-0.9l0.6-5H196.1z"/>
		<path style="fill:#274085;" d="M200.1,37.9c-0.5-0.2-1-0.6-1.3-1c-0.6-0.8-1-1.8-1-2.9c0-1.2,0.3-2.1,1-2.9c0.3-0.4,0.8-0.8,1.3-1
			c0.5-0.2,1.1-0.3,1.7-0.3c0.6,0,1.2,0.1,1.7,0.3c0.5,0.2,1,0.6,1.3,1c0.6,0.8,1,1.8,1,2.9c0,0.6-0.1,1.1-0.2,1.6
			c-0.2,0.5-0.4,0.9-0.7,1.3c-0.4,0.4-0.8,0.8-1.3,1c-0.5,0.2-1.1,0.3-1.7,0.3C201.2,38.2,200.6,38.1,200.1,37.9z M203.9,34
			c0-0.8-0.2-1.4-0.5-1.8c-0.2-0.2-0.4-0.4-0.7-0.5c-0.3-0.1-0.6-0.2-0.9-0.2c-0.3,0-0.6,0.1-0.9,0.2c-0.3,0.1-0.5,0.3-0.7,0.5
			c-0.3,0.4-0.5,1-0.5,1.8c0,0.8,0.2,1.4,0.5,1.8c0.2,0.2,0.4,0.4,0.7,0.6c0.3,0.1,0.6,0.2,0.9,0.2c0.3,0,0.6-0.1,0.9-0.2
			c0.3-0.1,0.5-0.3,0.7-0.6C203.7,35.4,203.9,34.8,203.9,34z"/>
		<path style="fill:#274085;" d="M213.1,31.8h-3.9V38h-1.8v-8h5.7V31.8z"/>
		<path style="fill:#274085;" d="M221.7,38h-1.8v-5.2l-3.8,5.2h-1.6v-8h1.8v5l3.8-5h1.6V38z"/>
		<path style="fill:#274085;" d="M231,38h-1.8v-5.2l-3.8,5.2h-1.6v-8h1.8v5l3.8-5h1.6V38z"/>
		<path style="fill:#274085;" d="M84.7,46.8c0.1,0.4,0.2,0.7,0.2,1.1c0,0.4-0.1,0.8-0.2,1.1c-0.1,0.4-0.3,0.7-0.6,1
			c-0.3,0.4-0.7,0.8-1.2,1c-0.5,0.2-1,0.4-1.6,0.4h-3v3.8h-1.8V44.5h4.8c0.4,0,0.7,0.1,1.1,0.2c0.7,0.2,1.3,0.6,1.7,1.2
			C84.4,46.1,84.6,46.4,84.7,46.8z M83.1,48c0-0.5-0.1-0.9-0.4-1.3c-0.2-0.2-0.4-0.3-0.6-0.4c-0.2-0.1-0.5-0.2-0.7-0.2h-3v3.6h3
			c0.2,0,0.5-0.1,0.7-0.2c0.2-0.1,0.4-0.3,0.6-0.5C83,48.7,83.1,48.4,83.1,48z"/>
		<path style="fill:#274085;" d="M88.2,55.1c-0.5-0.2-1-0.6-1.3-1c-0.6-0.8-1-1.8-1-2.9c0-1.2,0.3-2.1,1-2.9c0.3-0.4,0.8-0.8,1.3-1
			c0.5-0.2,1.1-0.3,1.7-0.3c0.6,0,1.2,0.1,1.7,0.3c0.5,0.2,1,0.6,1.3,1c0.6,0.8,1,1.8,1,2.9c0,0.6-0.1,1.1-0.2,1.6
			c-0.2,0.5-0.4,0.9-0.7,1.3c-0.4,0.4-0.8,0.8-1.3,1c-0.5,0.2-1.1,0.3-1.7,0.3C89.3,55.4,88.7,55.3,88.2,55.1z M92,51.2
			c0-0.8-0.2-1.4-0.5-1.8c-0.2-0.2-0.4-0.4-0.7-0.5c-0.3-0.1-0.6-0.2-0.9-0.2c-0.3,0-0.6,0.1-0.9,0.2c-0.3,0.1-0.5,0.3-0.7,0.5
			c-0.3,0.4-0.5,1-0.5,1.8c0,0.8,0.2,1.4,0.5,1.8c0.2,0.2,0.4,0.4,0.7,0.6c0.3,0.1,0.6,0.2,0.9,0.2c0.3,0,0.6-0.1,0.9-0.2
			c0.3-0.1,0.5-0.3,0.7-0.6C91.8,52.5,92,51.9,92,51.2z"/>
		<path style="fill:#274085;" d="M100.9,49.7c0-0.1-0.1-0.2-0.2-0.3c-0.2-0.2-0.4-0.4-0.7-0.6c-0.3-0.1-0.6-0.2-0.9-0.2
			c-0.3,0-0.6,0.1-0.9,0.2c-0.3,0.1-0.5,0.3-0.7,0.6c-0.3,0.4-0.5,1-0.5,1.8c0,0.8,0.2,1.4,0.5,1.8c0.2,0.2,0.4,0.4,0.7,0.5
			c0.3,0.1,0.6,0.2,0.9,0.2c0.3,0,0.6-0.1,0.9-0.2c0.3-0.1,0.5-0.3,0.7-0.5c0.1-0.1,0.1-0.2,0.2-0.3l1.7,0.7
			c-0.2,0.3-0.3,0.5-0.4,0.7c-0.4,0.4-0.8,0.8-1.3,1c-0.5,0.2-1.1,0.3-1.7,0.3c-0.6,0-1.2-0.1-1.7-0.3c-0.5-0.2-1-0.6-1.3-1
			c-0.6-0.8-1-1.8-1-2.9c0-1.1,0.3-2.1,1-2.9c0.4-0.4,0.8-0.8,1.3-1c0.5-0.2,1.1-0.3,1.7-0.3c0.6,0,1.2,0.1,1.7,0.3
			c0.5,0.2,1,0.6,1.3,1c0.2,0.2,0.3,0.5,0.4,0.7L100.9,49.7z"/>
		<path style="fill:#274085;" d="M111.3,55.2h-1.8v-6.3h-3.6v6.3h-1.8v-8h7.2V55.2z"/>
		<path style="fill:#274085;" d="M115.2,55.1c-0.5-0.2-1-0.6-1.3-1c-0.6-0.8-1-1.8-1-2.9c0-1.2,0.3-2.1,1-2.9c0.3-0.4,0.8-0.8,1.3-1
			c0.5-0.2,1.1-0.3,1.7-0.3c0.6,0,1.2,0.1,1.7,0.3c0.5,0.2,1,0.6,1.3,1c0.6,0.8,1,1.8,1,2.9c0,0.6-0.1,1.1-0.2,1.6
			c-0.2,0.5-0.4,0.9-0.7,1.3c-0.4,0.4-0.8,0.8-1.3,1c-0.5,0.2-1.1,0.3-1.7,0.3C116.3,55.4,115.8,55.3,115.2,55.1z M119.1,51.2
			c0-0.8-0.2-1.4-0.5-1.8c-0.2-0.2-0.4-0.4-0.7-0.5c-0.3-0.1-0.6-0.2-0.9-0.2c-0.3,0-0.6,0.1-0.9,0.2c-0.3,0.1-0.5,0.3-0.7,0.5
			c-0.3,0.4-0.5,1-0.5,1.8c0,0.8,0.2,1.4,0.5,1.8c0.2,0.2,0.4,0.4,0.7,0.6c0.3,0.1,0.6,0.2,0.9,0.2c0.3,0,0.6-0.1,0.9-0.2
			c0.3-0.1,0.5-0.3,0.7-0.6C118.9,52.5,119.1,51.9,119.1,51.2z"/>
		<path style="fill:#274085;" d="M129.1,48.7h-2.7v6.4h-1.8v-6.4h-2.7v-1.6h7.2V48.7z"/>
		<path style="fill:#274085;" d="M138,49.6c0.2,0.5,0.2,1,0.2,1.6c0,1.2-0.3,2.2-0.9,3c-0.3,0.4-0.7,0.7-1.2,0.9
			c-0.5,0.2-1,0.3-1.5,0.3c-0.9,0-1.6-0.2-2.2-0.7v4h-1.8V47.1h1.6v0.6c0.3-0.3,0.7-0.5,1.1-0.6c0.4-0.1,0.8-0.2,1.3-0.2
			c0.6,0,1.1,0.1,1.6,0.3c0.5,0.2,0.9,0.5,1.3,1C137.6,48.6,137.9,49,138,49.6z M136.3,51.2c0-0.8-0.2-1.4-0.5-1.9
			c-0.3-0.5-0.9-0.8-1.7-0.8c-0.3,0-0.6,0.1-0.9,0.2c-0.3,0.1-0.5,0.3-0.7,0.5c-0.2,0.2-0.3,0.5-0.4,0.9c-0.1,0.3-0.1,0.7-0.1,1.1
			c0,0.4,0,0.8,0.1,1.1c0.1,0.4,0.2,0.6,0.4,0.9c0.4,0.4,0.9,0.7,1.6,0.7c0.3,0,0.6-0.1,0.9-0.2c0.3-0.1,0.5-0.3,0.7-0.6
			C136.2,52.6,136.3,52,136.3,51.2z"/>
		<path style="fill:#274085;" d="M141.7,53.1c0.2,0.2,0.4,0.4,0.7,0.6c0.3,0.1,0.6,0.2,1,0.2c0.5,0,0.9-0.1,1.3-0.3
			c0.4-0.2,0.7-0.5,1-0.9l1.3,0.9c-0.4,0.6-0.9,1-1.5,1.3c-0.6,0.3-1.3,0.5-2.1,0.5c-0.6,0-1.2-0.1-1.8-0.3c-0.6-0.2-1-0.6-1.4-1
			c-0.3-0.4-0.6-0.8-0.7-1.3c-0.2-0.5-0.2-1-0.2-1.5c0-0.6,0.1-1.1,0.2-1.7c0.2-0.5,0.4-1,0.7-1.4c0.4-0.4,0.8-0.8,1.3-1
			c0.5-0.2,1.1-0.3,1.7-0.3c0.6,0,1.2,0.1,1.7,0.3c0.5,0.2,1,0.6,1.3,1c0.6,0.8,1,1.8,1,2.9c0,0.1,0,0.4,0,0.7h-6.1
			C141.3,52.3,141.5,52.8,141.7,53.1z M142.5,48.7c-0.3,0.1-0.5,0.3-0.7,0.6c-0.2,0.3-0.3,0.6-0.4,1h4.2c-0.1-0.4-0.2-0.7-0.4-1
			c-0.2-0.2-0.4-0.4-0.7-0.6c-0.3-0.1-0.6-0.2-1-0.2C143.1,48.5,142.8,48.5,142.5,48.7z"/>
		<path style="fill:#274085;" d="M154.2,48c0.5,0.2,0.9,0.5,1.2,0.9c0.3,0.4,0.5,0.8,0.7,1.2c0.2,0.5,0.2,1,0.2,1.5
			c0,0.5-0.1,1-0.3,1.5c-0.2,0.5-0.4,0.9-0.8,1.3c-0.4,0.4-0.8,0.6-1.3,0.8c-0.5,0.2-1,0.3-1.6,0.2c-0.5,0-1-0.1-1.5-0.3
			c-0.5-0.2-0.9-0.5-1.3-0.9c-0.3-0.4-0.6-0.8-0.7-1.2c-0.1-0.4-0.2-0.9-0.3-1.5c0-0.5,0-0.8,0-1c0-0.7,0-1.4,0.1-2.1
			c0.1-0.6,0.3-1.2,0.6-1.7c0.3-0.5,0.7-1,1.1-1.3c0.4-0.3,1-0.5,1.5-0.6c0.6-0.1,1.2-0.2,1.9-0.2c0.6,0,1.2,0.1,1.8,0.2v1.7
			c-0.8-0.1-1.5-0.1-2.1-0.1c-0.5,0-0.9,0-1.3,0.1c-0.4,0.1-0.7,0.2-0.9,0.4c-0.3,0.2-0.5,0.5-0.6,0.8c-0.1,0.3-0.2,0.7-0.3,1.2
			c0.3-0.3,0.6-0.5,1-0.7c0.4-0.2,0.8-0.2,1.2-0.3C153.2,47.6,153.8,47.8,154.2,48z M151.7,49.4c-0.3,0.1-0.5,0.3-0.6,0.5
			c-0.3,0.4-0.5,0.9-0.5,1.6c0,0.7,0.2,1.2,0.5,1.6c0.2,0.2,0.4,0.3,0.6,0.5c0.3,0.1,0.5,0.2,0.8,0.2c0.3,0,0.6-0.1,0.8-0.2
			c0.3-0.1,0.5-0.3,0.6-0.5c0.3-0.4,0.5-0.9,0.5-1.6c0-0.7-0.2-1.2-0.5-1.6c-0.2-0.2-0.4-0.4-0.6-0.5c-0.3-0.1-0.5-0.2-0.8-0.2
			C152.2,49.2,151.9,49.3,151.7,49.4z"/>
		<path style="fill:#274085;" d="M165.2,47.1v8h-1.8v-3.3h-3.6v3.3H158v-8h1.8v2.9h3.6v-2.9H165.2z"/>
		<path style="fill:#274085;" d="M172.3,55.2v-1.1c-0.4,0.5-0.8,0.8-1.2,1s-1,0.3-1.6,0.3c-0.8,0-1.4-0.2-1.9-0.7
			c-0.5-0.4-0.7-1-0.7-1.8c0-0.5,0.1-1,0.3-1.4c0.2-0.4,0.6-0.7,1.1-0.9c0.4-0.2,0.8-0.3,1.3-0.4c0.5-0.1,1.2-0.2,1.9-0.3l0.6-0.1
			c0-0.4-0.2-0.7-0.5-0.9c-0.3-0.2-0.7-0.3-1.2-0.3c-0.8,0-1.5,0.3-2.1,0.8l-1.1-1.2c0.4-0.4,0.9-0.8,1.5-1c0.5-0.2,1.1-0.3,1.8-0.3
			c0.4,0,0.8,0.1,1.2,0.2c0.4,0.2,0.8,0.4,1,0.6c0.7,0.6,1,1.4,1,2.6v4.8H172.3z M172.1,52.2c0-0.2,0-0.6,0-0.9
			c-0.9,0.2-1.7,0.3-2.2,0.4c-0.4,0.1-0.7,0.2-1,0.4c-0.2,0.2-0.4,0.4-0.4,0.7c0,0.3,0.1,0.6,0.4,0.8c0.2,0.2,0.6,0.3,0.9,0.3
			c0.4,0,0.8-0.1,1.2-0.3c0.3-0.2,0.6-0.4,0.8-0.8C172,52.7,172.1,52.4,172.1,52.2z"/>
		<path style="fill:#274085;" d="M182.8,53.5h0.7v2.7h-1.7v-1h-5v1h-1.7v-2.7c0.4,0,0.7-0.2,1-0.7c0.3-0.4,0.5-1.1,0.6-2.1l0.4-3.6
			h5.7V53.5z M181.1,48.7h-2.5l-0.3,2.2c-0.1,1.2-0.4,2.1-0.8,2.5h3.5V48.7z"/>
		<path style="fill:#274085;" d="M185.5,48c0.2-0.3,0.5-0.5,0.8-0.7c0.3-0.1,0.6-0.2,1-0.3c0.4-0.1,0.7-0.1,1.1-0.1s0.7,0,1.1,0.1
			c0.4,0.1,0.7,0.2,0.9,0.3c0.4,0.2,0.7,0.5,1,0.8c0.2,0.4,0.4,0.8,0.4,1.3c0,0.3,0,0.6-0.1,0.8c-0.1,0.2-0.2,0.5-0.4,0.7
			c0.2,0.2,0.4,0.4,0.5,0.7c0.1,0.3,0.2,0.6,0.2,1c0,0.5-0.1,0.9-0.4,1.3c-0.3,0.4-0.6,0.7-1,0.9c-0.6,0.3-1.3,0.4-2.2,0.4
			c-0.9,0-1.6-0.1-2.2-0.4c-0.7-0.4-1.2-1-1.4-1.8l1.8-0.4c0.1,0.3,0.2,0.5,0.5,0.7c0.3,0.2,0.7,0.3,1.3,0.3c0.5,0,0.9-0.1,1.3-0.3
			c0.2-0.1,0.3-0.2,0.4-0.3c0.1-0.1,0.1-0.3,0.1-0.4c0-0.5-0.3-0.7-0.8-0.8c-0.2,0-0.6-0.1-1-0.1h-0.8v-1.4h0.8c0.4,0,0.7,0,0.9-0.1
			c0.3-0.1,0.5-0.1,0.6-0.3c0.1-0.1,0.1-0.3,0.1-0.5c0-0.1,0-0.3-0.1-0.4c-0.1-0.1-0.2-0.2-0.3-0.3c-0.3-0.2-0.7-0.3-1.2-0.3
			c-0.5,0-0.9,0.1-1.2,0.3c-0.1,0.1-0.2,0.1-0.3,0.2c-0.1,0.1-0.1,0.2-0.1,0.3L185,49C185.1,48.6,185.2,48.3,185.5,48z"/>
		<path style="fill:#274085;" d="M195.5,55.1c-0.5-0.2-1-0.6-1.3-1c-0.6-0.8-1-1.8-1-2.9c0-1.2,0.3-2.1,1-2.9c0.3-0.4,0.8-0.8,1.3-1
			c0.5-0.2,1.1-0.3,1.7-0.3c0.6,0,1.2,0.1,1.7,0.3c0.5,0.2,1,0.6,1.3,1c0.6,0.8,1,1.8,1,2.9c0,0.6-0.1,1.1-0.2,1.6
			c-0.2,0.5-0.4,0.9-0.7,1.3c-0.4,0.4-0.8,0.8-1.3,1c-0.5,0.2-1.1,0.3-1.7,0.3C196.6,55.4,196,55.3,195.5,55.1z M199.3,51.2
			c0-0.8-0.2-1.4-0.5-1.8c-0.2-0.2-0.4-0.4-0.7-0.5c-0.3-0.1-0.6-0.2-0.9-0.2c-0.3,0-0.6,0.1-0.9,0.2c-0.3,0.1-0.5,0.3-0.7,0.5
			c-0.3,0.4-0.5,1-0.5,1.8c0,0.8,0.2,1.4,0.5,1.8c0.2,0.2,0.4,0.4,0.7,0.6c0.3,0.1,0.6,0.2,0.9,0.2c0.3,0,0.6-0.1,0.9-0.2
			c0.3-0.1,0.5-0.3,0.7-0.6C199.1,52.5,199.3,51.9,199.3,51.2z"/>
		<path style="fill:#274085;" d="M210.3,49.6c0.2,0.5,0.2,1,0.2,1.6c0,1.2-0.3,2.2-0.9,3c-0.3,0.4-0.7,0.7-1.2,0.9
			c-0.5,0.2-1,0.3-1.5,0.3c-0.9,0-1.6-0.2-2.2-0.7v4h-1.8V47.1h1.6v0.6c0.3-0.3,0.7-0.5,1.1-0.6c0.4-0.1,0.8-0.2,1.3-0.2
			c0.6,0,1.1,0.1,1.6,0.3c0.5,0.2,0.9,0.5,1.3,1C209.9,48.6,210.1,49,210.3,49.6z M208.6,51.2c0-0.8-0.2-1.4-0.5-1.9
			c-0.3-0.5-0.9-0.8-1.7-0.8c-0.3,0-0.6,0.1-0.9,0.2c-0.3,0.1-0.5,0.3-0.7,0.5c-0.2,0.2-0.3,0.5-0.4,0.9c-0.1,0.3-0.1,0.7-0.1,1.1
			c0,0.4,0,0.8,0.1,1.1c0.1,0.4,0.2,0.6,0.4,0.9c0.4,0.4,0.9,0.7,1.6,0.7c0.3,0,0.6-0.1,0.9-0.2c0.3-0.1,0.5-0.3,0.7-0.6
			C208.5,52.6,208.6,52,208.6,51.2z"/>
		<path style="fill:#274085;" d="M217.3,55.2v-1.1c-0.4,0.5-0.8,0.8-1.2,1c-0.4,0.2-1,0.3-1.6,0.3c-0.8,0-1.4-0.2-1.9-0.7
			c-0.5-0.4-0.7-1-0.7-1.8c0-0.5,0.1-1,0.3-1.4c0.2-0.4,0.6-0.7,1.1-0.9c0.4-0.2,0.8-0.3,1.3-0.4c0.5-0.1,1.2-0.2,1.9-0.3l0.6-0.1
			c0-0.4-0.2-0.7-0.5-0.9c-0.3-0.2-0.7-0.3-1.2-0.3c-0.8,0-1.5,0.3-2.1,0.8l-1.1-1.2c0.4-0.4,0.9-0.8,1.5-1c0.5-0.2,1.1-0.3,1.8-0.3
			c0.4,0,0.8,0.1,1.2,0.2c0.4,0.2,0.8,0.4,1,0.6c0.7,0.6,1,1.4,1,2.6v4.8H217.3z M217,52.2c0-0.2,0-0.6,0-0.9
			c-0.9,0.2-1.7,0.3-2.2,0.4c-0.4,0.1-0.7,0.2-1,0.4c-0.2,0.2-0.4,0.4-0.4,0.7c0,0.3,0.1,0.6,0.4,0.8c0.2,0.2,0.6,0.3,0.9,0.3
			c0.4,0,0.8-0.1,1.2-0.3c0.3-0.2,0.6-0.4,0.8-0.8C216.9,52.7,217,52.4,217,52.2z"/>
	</g>
</g>
</svg>
